{"title":"Jas.Sum.Od.Titov.Veles.aka.I.Am.From.Titov.Veles.2007.DVDRip.Xvi","uid":6894782,"size":731581411,"categoryP":"video","categoryS":"movies","magnet":"?xt=urn:btih:b79530ee9aeba81b5e27df071d7ef22e9c6e589d&amp;dn=Jas.Sum.Od.Titov.Veles.aka.I.Am.From.Titov.Veles.2007.DVDRip.Xvi&amp;tr=udp%3A%2F%2Ftracker.openbittorrent.com%3A80&amp;tr=udp%3A%2F%2Fopen.demonii.com%3A1337&amp;tr=udp%3A%2F%2Ftracker.coppersurfer.tk%3A6969&amp;tr=udp%3A%2F%2Fexodus.desync.com%3A6969","seeders":0,"leechers":2,"uploader":null,"files":3,"time":1324155340,"description":"Format                           : AVI\nFormat/Info                      : Audio Video Interleave\nFile size                        : 698 MiB\nDuration                         : 1h 37mn\nOverall bit rate                 : 996 Kbps\nWriting application              : VirtualDubMod 1.5.10.2 (build 2540/release)\nWriting library                  : VirtualDubMod build 2540/release\n\nVideo\nID                               : 0\nFormat                           : MPEG-4 Visual\nFormat profile                   : Advanced Simple@L5\nFormat settings, BVOP            : 1\nFormat settings, QPel            : No\nFormat settings, GMC             : No warppoints\nFormat settings, Matrix          : Default (H.263)\nMuxing mode                      : Packed bitstream\nCodec ID                         : DIVX\nCodec ID/Info                    : Project Mayo\nCodec ID/Hint                    : DivX 4\nDuration                         : 1h 37mn\nBit rate                         : 874 Kbps\nWidth                            : 664 pixels\nHeight                           : 288 pixels\nDisplay aspect ratio             : 2.35:1\nFrame rate                       : 25.000 fps\nColor space                      : YUV\nChroma subsampling               : 4:2:0\nBit depth                        : 8 bits\nScan type                        : Progressive\nCompression mode                 : Lossy\nBits/(Pixel*Frame)               : 0.183\nStream size                      : 612 MiB (88%)\nWriting library                  : XviD 63\n\nAudio\nID                               : 1\nFormat                           : MPEG Audio\nFormat version                   : Version 1\nFormat profile                   : Layer 3\nMode                             : Joint stereo\nMode extension                   : MS Stereo\nCodec ID                         : 55\nCodec ID/Hint                    : MP3\nDuration                         : 1h 37mn\nBit rate mode                    : Variable\nBit rate                         : 112 Kbps\nChannel(s)                       : 2 channels\nSampling rate                    : 44.1 KHz\nCompression mode                 : Lossy\nStream size                      : 76.8 MiB (11%)\nAlignment                        : Aligned on interleaves\nInterleave, duration             : 26 ms (0.65 video frame)\nInterleave, preload duration     : 523 ms\nWriting library                  : LAME3.90.\nEncoding settings                : -m j -V 4 -q 2 -lowpass 16 --abr 112\n\nNote: English subtitles included ;).","torrent":{"xt":"urn:btih:b79530ee9aeba81b5e27df071d7ef22e9c6e589d","amp;dn":"Jas.Sum.Od.Titov.Veles.aka.I.Am.From.Titov.Veles.2007.DVDRip.Xvi","amp;tr":["udp%3A%2F%2Ftracker.openbittorrent.com%3A80","udp%3A%2F%2Fopen.demonii.com%3A1337","udp%3A%2F%2Ftracker.coppersurfer.tk%3A6969","udp%3A%2F%2Fexodus.desync.com%3A6969"],"infoHash":"b79530ee9aeba81b5e27df071d7ef22e9c6e589d","infoHashBuffer":{"type":"Buffer","data":[183,149,48,238,154,235,168,27,94,39,223,7,29,126,242,46,156,110,88,157]},"announce":[],"urlList":[]}}